<?xml version="1.0" encoding="UTF-8"?>
<svg xmlns="http://www.w3.org/2000/svg">
  <symbol id="logo-wordmark" viewBox="0 0 1496.2 344.09">
    
    <g>
      <g id="Layer_1">
        <g>
                   <path d="M173.69,300.45c0,2.14.06,4.01-.01,5.88-.17,4.66-.43,9.32-.58,13.98-.11,3.33-.05,6.66-.14,10-.04,1.74-.26,3.47-.33,5.22-.05,1.39.09,2.79,0,4.18-.2,2.92-.86,3.61-3.76,3.65-2.79.04-5.58-.12-8.37-.15-2.78-.03-5.55.02-8.33-.04-3.87-.08-7.74-.38-11.61-.33-4.63.07-9.25-.97-13.9.08-1.83.41-3.83.2-5.74.15-3.25-.08-6.5-.31-9.75-.39-5.95-.14-11.89-.22-17.84-.32-.48,0-1.01-.11-1.43.05-1.77.66-3.38.1-5.24-.58-.13-.91-.4-1.92-.4-2.92-.02-6.36-.08-12.73.06-19.09.08-3.65-.23-7.32-.09-10.91.13-3.23.1-6.49.05-9.69-.08-4.82.49-9.6.33-14.4-.1-2.94-.16-5.88-.16-8.82,0-3.01.14-6.02.17-9.02.05-5.96.06-11.93.08-17.89.02-4.36.03-8.73.03-13.09,0-4.99,0-9.99-.05-14.98-.02-1.95-.16-3.9-.26-6.08-2.3,0-4.42-.05-6.55.01-3.09.08-6.18.31-9.27.36-3.95.06-7.91-.02-11.86,0-2.71.01-5.42.16-8.12.11-1.78-.03-3.34-.31-5.03-1.5-1.89-1.33-1.92-2.63-1.88-4.48.09-4.38-.09-8.77,0-13.15.06-3.55.42-7.09.5-10.64.04-1.98-.25-3.96-.35-5.94-.17-3.56-.25-7.11-.49-10.67-.35-5.1-.03-10.24-.03-15.37,0-4.04-.13-8.08-.08-12.12.06-5.79.29-11.57.35-17.36.05-5.57.01-11.15-.05-16.72-.04-3.24-.52-6.51-.23-9.71.28-3.06.32-6.11.31-9.16,0-1.1-.08-2.26-1.2-2.93-.39-.23-.8-.57-1.21-.58-2.94-.05-5.89-.05-8.84,0-5.04.06-10.08.14-15.11.26-3.17.07-6.35.27-9.52.35-2.5.06-5,.01-7.77.01,0-2.16,0-4.29,0-6.42.03-5.89.08-11.78.11-17.67.03-4.69.2-9.38,0-14.05-.13-3.05,1.73-4.59,3.73-6.17.32-.25.89-.21,1.35-.24,5.6-.3,11.19-.35,16.79.16,2.2.2,4.43,0,6.65.05.95.02,1.88.28,2.83.32,1.94.08,3.89.08,5.83.1.79,0,1.58.01,2.36-.04,2.87-.2,3.77,1.98,4.57,3.46-.18,1.41-.55,2.38-.38,3.25.68,3.45.6,6.92.57,10.4-.03,5.49.17,10.97.16,16.46,0,2.61-.29,5.21-.43,7.82-.02.46.04.92.07,1.47,5.6.3,11.1.61,16.62.25,2.14-.14,4.31.14,6.46.22,3.72.14,7.44.3,11.16.4,1.02.03,2.06-.13,3.08-.26,1.68-.22,3.33-.26,4.89.58,1.45,2.44.83,5.13.92,7.72.16,4.69.24,9.38.24,14.07.01,5.55-.11,11.11-.13,16.66,0,2.36.15,4.71.19,7.07.08,5.15.13,10.31.17,15.46.03,3.89.01,7.78.08,11.66.05,3,.25,5.99.26,8.99,0,.65-.51,1.3-.78,1.96-.27.67-.54,1.34-.91,2.28,1,.11,1.61.25,2.22.22,4.75-.18,9.51-.46,14.26-.58,2.95-.08,5.9.06,8.85.08,2.73.02,5.47.04,8.2.02,2.94-.02,5.89-.18,8.83-.09,2,.06,2.62.77,2.7,2.83.11,2.87.1,5.74.09,8.62,0,3.51-.09,7.01-.1,10.52-.02,5.23.05,10.46-.01,15.69-.05,4.27-.29,8.55-.38,12.82-.13,5.89-.25,11.78-.3,17.67-.03,3.17.15,6.35.12,9.52-.04,4.38-.27,8.76-.29,13.14-.01,3.72.26,7.45.22,11.17-.05,4.13-.33,8.26-.48,12.39-.05,1.42-.05,2.85-.05,4.28,0,2.61.02,5.23.06,7.84,0,.47.15.93.27,1.6.88.04,1.73.15,2.58.12,5.56-.22,11.13-.47,16.69-.69,4.58-.18,9.16-.33,13.74-.47,2.02-.06,4.05-.08,6.07-.06.6,0,1.2.21,2.04.37,0-23.72.11-47.34-.03-70.96-.14-23.63.08-47.25.42-70.87.34-23.56-.05-47.12.38-70.81-4.01,0-8.08.13-12.13-.03-4.92-.2-9.82-.66-14.74-.97-1.18-.08-2.38.06-3.57,0-2.21-.12-4.41-.39-6.62-.44-1.2-.03-2.42.18-3.6.41-1.39.27-1.95-.48-2.13-1.63-.22-1.41-.41-2.84-.47-4.26-.28-7.35-.67-14.7-.71-22.05-.02-4-.51-8.03.27-12.04.37-1.91.72-2.56,2.54-2.9.78-.14,1.58-.21,2.37-.21,3.33,0,6.67.03,10,.07,4.89.06,9.78.2,14.67.19,2.94,0,5.87-.26,8.81-.32,3.24-.07,6.48-.02,9.72-.1,2.52-.06,5.03-.32,7.55-.37,2.99-.06,5.98.01,8.97,0,4.62,0,9.25-.03,13.87-.04,1.44,0,2.9-.14,4.3.1,1.03.18,2.05.76,2.95,1.34,1.06.68.64,1.74.59,2.8-.14,3.16-.03,6.33-.02,9.5,0,1.89.04,3.79.03,5.68-.02,4.53-.08,9.06-.09,13.6-.01,3.5.03,7.01.03,10.51,0,4.75-.04,9.51-.02,14.26.02,3.64.15,7.27.16,10.91,0,3.77-.13,7.54-.1,11.31.02,2.68.27,5.35.29,8.03.05,7,.02,14,.03,21,0,4.03,0,8.05.04,12.08.07,5.78.23,11.55.25,17.33.02,4.22-.15,8.44-.15,12.66,0,2.85.21,5.7.21,8.54,0,3.23-.12,6.45-.18,9.68,0,.32.02.63.02.95.04,2.84.07,5.68.12,8.51.05,3.24.16,6.49.14,9.73-.02,2.53-.25,5.06-.29,7.59-.02,1.57.17,3.15.19,4.72.06,5.78.18,11.56.12,17.34-.09,8.32-.31,16.64-.51,24.96-.08,3.15-.28,6.3-.39,9.45-.02.71,0,1.47.2,2.14.38,1.23-.37,2.14-.85,3.04-.23.42-1.22.56-1.88.6-1.07.08-2.15-.01-3.23-.05-.37-.01-.73-.11-1.1-.15-.63-.06-1.29-.26-1.89-.14-5.38,1.08-10.76.49-16.16.29-3.32-.13-6.66.28-9.99.46-2.18.11-4.35.24-6.52.36Z"/>
        <path d="M1195.34,84.54c1.85-.23,3.57-.6,5.3-.62,4.37-.06,8.74-.02,13.1.07,6.44.12,12.88.45,19.31.39,1.73-.02,3.16.69,4.73.84,1.83,2.27,1.48,4.96,1.55,7.52.06,2.22-.49,4.5-.16,6.66.58,3.73.23,7.46.27,11.16.03,3.38.41,6.77.07,10.19-.29,2.88.11,5.82.12,8.73,0,3.39-.11,6.78-.11,10.17,0,1.27.27,2.53.23,3.8-.11,3.63-.19,7.25.03,10.88.13,2.12-.22,4.26-.22,6.4,0,3.8.13,7.61.12,11.41,0,3.73-.14,7.45-.17,11.18-.03,4.76-.03,9.53.02,14.29.04,3.94.21,7.88.24,11.82,0,1.01-.3,2.03-.47,3.09-2,.73-4.01.89-6.07.66-.32-.04-.64-.07-.96-.03-8.82,1.1-17.68.31-26.52.6-2.81.09-5.7-.62-8.46.49-.14.06-.28.15-.54.29-.05.46-.15,1-.15,1.54.01,4.07.12,8.14.07,12.21-.09,7.27-.03,14.56-.5,21.81-.2,3.06.9,5.89.62,8.92-.35,3.87-.36,7.77-.44,11.66-.08,3.86,0,7.73-.1,11.59-.1,3.89-.33,7.77-.5,11.66-.03.64-.04,1.28-.02,1.92.07,2.65.59,4.17,3.57,4.64,1.54-1.92,3.84-1.24,5.92-1.32,2.53-.09,5.06.19,7.59.2,4.76.02,9.52-.06,14.28-.07,2.39,0,4.78.04,7.17.05,1.65,0,3.3,0,5.23,0-.02,13.99-.04,27.77-.81,41.77-2.77.05-5.43.13-8.1.15-4.6.03-9.21.03-13.81.03-5.9,0-11.8,0-17.71,0-.48,0-.97,0-1.43-.09-1.75-.33-2.14-.78-2.14-2.66,0-1.65.16-3.29.13-4.94-.09-4.69.27-9.38-.23-14.08-.29-2.78.06-5.63.06-8.44,0-2.81-.09-5.63-.13-8.44-.01-.78,0-1.57,0-2.42-.04-.04-.15-.24-.27-.25-2.44-.18-4.88-.41-7.33-.48-2.85-.08-5.71-.07-8.56-.02-2.51.05-5.02.23-7.53.29-2.04.05-4.08-.03-6.11.02-1.74.04-3.48.15-5.22.28-1.41.11-2.81.3-4.22.43-1.55.15-3.38-1.32-3.4-3.01-.06-4.14.04-8.28.06-12.43,0-.93-.12-1.87-.12-2.8,0-6.45.04-12.89.05-19.34,0-3.16-.04-6.33-.05-9.49-.03-7.62-.18-15.24-.01-22.86.07-3.41-.13-6.8-.05-10.2.04-1.73,0-3.47,0-5.48-2.78,0-5.37,0-7.97,0-3.19,0-6.37-.03-9.56,0-3.8.05-7.6.16-11.4.23-2.86.05-5.73.06-8.59.11-.64.01-1.3,0-1.89.19-1.06.34-1.67.95-1.54,2.3.8,8.34.8,16.7.64,25.07-.06,2.92-.33,5.84-.4,8.76-.1,4.58-.07,9.17-.16,13.75-.11,5.73-.34,11.46-.41,17.19-.04,2.78.21,5.56.23,8.34.01,2.12-.02,4.26-.25,6.37-.17,1.58-.74,1.86-2.33,2.16-3.05.57-6.08-.2-9.13,0-2.52.16-5.05.05-7.58.15-2.92.11-5.84.34-8.76.49-3.34.17-6.68.32-10.02.44-.79.03-1.61,0-2.39-.12-1.3-.21-2.19-1.01-2.46-2.3-.5-2.41-.81-4.8-.6-7.32.28-3.4.12-6.85.1-10.27-.01-3.01-.12-6.02-.11-9.04.02-4.63.09-9.26.16-13.88.06-4.05.23-8.1.22-12.15,0-6.17-.14-12.35-.18-18.52-.06-8.91-.11-17.82-.1-26.74,0-1.97.35-3.93.37-5.9.02-1.58-.31-3.16-.31-4.73-.02-5.83-.18-11.66.14-17.47.19-3.48-.46-6.87-.4-10.34.13-7.8-.34-15.6-.32-23.41,0-3.24-.12-6.48-.17-9.72-.11-6.5-.2-13-.34-19.49-.07-3.32-.5-6.65-.3-9.95.21-3.51-.04-7,.07-10.5.05-1.62,0-3.25-.04-4.88-.12-4.42-.51-8.86-.31-13.27.15-3.44-.17-6.88.12-10.31.08-1.01-.11-2.05-.14-3.08-.11-3.96-.2-7.92-.31-11.88-.05-1.9.69-2.95,2.56-3.43.77-.2,1.56-.35,2.34-.39,3.88-.16,7.79-.62,11.64-.29,2.53.21,5.04-.71,7.57.19,1.02.36,2.3-.05,3.47-.1.86-.03,1.81-.29,2.56-.01,1.73.65,3.42-.05,5.13.09,2.17.19,4.37.1,6.55.11,2.38,0,4.75-.01,7.13-.02,3.58-.02,7.16-.09,10.75-.05,4.99.05,9.97.17,14.96.28,2.66.06,5.33.37,7.97.16,4.05-.32,8.06-.31,12.11.02,2.16.18,4.36-.11,6.54-.15,1.19-.02,2.38.05,3.56.08,3.22.09,6.44.22,9.67.28,2.85.05,5.7.05,8.55,0,1.93-.03,3.65.34,4.68,2.15.37.66.67,1.43.73,2.18.34,4.42.61,8.84.87,13.27.05.86-.07,1.73-.05,2.6.15,5.78.36,11.56.45,17.34.02,1.65-.31,3.3-.5,5.13ZM1193.71,85.86c-4.69,0-9.45-.03-14.22,0-6.68.06-13.35.15-20.03.26-7.4.12-14.81.25-22.21.41-1.74.04-3.47.31-5.21.35-2.66.06-5.32,0-7.98.02-3.48.03-6.98.71-10.43-.35-.87-.27-1.64.11-1.82,1.07-.35,1.92-.84,3.85-.87,5.78-.07,3.54.22,7.08.24,10.62.04,5.52,0,11.05-.02,16.57-.03,8.18-.1,16.36-.08,24.53.01,7.88.09,15.76.18,23.63,0,.94.23,1.87.35,2.81,1.44,0,2.76.03,4.08,0,3.46-.08,6.93-.22,10.39-.29,8.21-.17,16.42-.28,24.63-.48,5.15-.12,10.29-.39,15.43-.53,3.85-.11,7.7-.14,11.55-.18,3.79-.04,7.59-.05,11.38-.07,1.75,0,3.49,0,5.52,0v-3.05c0-13.43,0-26.87,0-40.3,0-12.55,0-25.11-.01-37.66,0-1.08.32-2.28-.87-3.16Z"/>
        <path d="M428.8,42.32c-.43-2.23-.62-4.7-.61-7.25.01-4.45-.57-8.9-.77-13.35-.12-2.61.08-5.24.05-7.86-.03-2.61-.17-5.23-.25-7.84-.02-.64-.07-1.31.09-1.91.28-1.06.64-2.12,1.09-3.12.62-1.4,1.98-.75,2.98-.83C433.77,0,436.17,0,438.56,0c5.65,0,11.31,0,16.96.08,3.48.04,6.97.28,10.45.32,2.53.03,4.56,1.34,4.54,4.66-.01,3.41.22,6.82.27,10.23.04,3.15-.02,6.3-.04,9.46-.02,3.27-.04,6.53-.06,9.8,0,.4.03.83-.1,1.19-.7,1.86-.72,3.67-.14,5.61.41,1.39-1.05,2.69-2.58,2.66-2.84-.05-5.69.05-8.52-.1-5.26-.28-10.52.38-15.81-.3-3.5-.45-7.13.1-10.7.27-1.17.05-2.33.3-3.72.49.15,13.5.29,26.97.44,40.6,1.67,0,3.44,0,5.21,0,9.94-.04,19.88-.07,29.82-.13,1.42,0,2.84-.17,4.25-.27,1.49-.11,2.61.69,2.93,2.2.21,1.01.43,2.05.43,3.07.01,2.35-.17,4.7-.14,7.05.02,1.49.48,3,.4,4.48-.21,3.97-.07,7.93-.07,11.9,0,4.06.04,8.12,0,12.18-.05,6.27-.31,12.55-.15,18.81.14,5.39.18,10.76.16,16.15-.02,4.79.34,9.57.36,14.36.02,4.6-.26,9.21-.28,13.81-.02,5.17.23,10.34.09,15.51-.07,2.57.21,5.18-.77,7.74-.98,2.55.09,5.21.35,7.8.53,5.41.63,10.79-.19,16.17-.33,2.15-.37,4.28.33,6.39.19.57.25,1.33.04,1.86-1.17,2.93-.83,5.97-.92,8.99-.06,1.95-.33,3.9-.44,5.85-.1,1.88-.11,3.77-.13,5.65-.04,2.85-.06,5.71-.07,8.56,0,4.94-.04,9.88.05,14.82.05,2.7.4,5.4.46,8.1.02.98-.26,2.05-.68,2.94-.67,1.39-1.87,2.06-3.49,2.04-4.13-.05-8.27-.04-12.4-.03-4.61,0-9.22.05-13.83.03-2.95,0-5.89-.07-8.83-.14-.71-.02-1.45-.07-2.13-.26-1.22-.35-1.99-1.49-1.96-2.65.08-3.88.17-7.75.22-11.63.06-4.91.15-9.82.08-14.73-.06-3.72,0-7.43,0-11.14,0-6.87.1-13.75-.02-20.63-.09-4.85-.2-9.7-.21-14.56,0-2.93.16-5.85.24-8.78.01-.47,0-.94,0-1.19-.87-.6-1.49-1.19-2.22-1.48-.71-.28-1.54-.36-2.32-.36-4.39.01-8.78.08-13.17.12-.32,0-.64-.07-.96-.04-2.76.22-5.51.46-8.26.7-.24.02-.49.14-.71.1-2.83-.57-5.68-.3-8.53-.3-3.03,0-6.06-.23-9.09-.2-2.87.02-5.74.32-8.61.36-4.94.07-9.89.06-14.83.06-4.5,0-9.01-.04-13.51-.05-1.65,0-2.02.34-2.03,2.1-.02,4.4.05,8.81-.02,13.21-.09,6.2-.3,12.41-.4,18.61-.04,2.54.07,5.08.08,7.62.01,5.23.19,10.47-.05,15.69-.27,5.71-.08,11.41.03,17.12.05,2.67-.03,5.34-.08,8.01-.01.55-.13,1.11-.29,1.64-.38,1.27-1.32,1.98-2.5,1.6-3.15-1.03-6.32-.26-9.48-.32-2.83-.06-5.67-.04-8.51,0-1.42.02-2.83.19-4.25.23-3.23.1-6.46.18-9.69.24-1.67.03-3.35.1-5.02.02-2.47-.12-3.83-1.91-3.73-4.36.12-3.09.04-6.2.05-9.3.01-3.74.05-7.49.05-11.23,0-5.97-.06-11.93-.06-17.9,0-2.07.14-4.14.14-6.2.01-4.17-.03-8.34-.03-12.51,0-3,.04-6.01.03-9.01-.01-2.83-.09-5.66-.1-8.49-.02-3.58,0-7.16.01-10.74.01-5.58.01-11.15.06-16.73.02-2.44.19-4.87.22-7.3.02-1.73-.06-3.46-.09-5.2-.06-3.26-.17-6.52-.17-9.78,0-2.44.22-4.87.22-7.31,0-3.47-.16-6.94-.16-10.41,0-3.22.18-6.44.2-9.66.01-2.44-.13-4.89-.17-7.33-.02-1.18.06-2.36.07-3.55.02-3.08.05-6.16.03-9.24-.03-3.47-.42-6.98-.06-10.41.26-2.52-.37-4.96.01-7.48.31-2.06-.01-4.21-.05-6.32-.01-.79,0-1.59,0-2.38-.02-3.23-.07-6.46-.05-9.69.02-2.28.19-4.55.19-6.83,0-2.33-.17-4.66-.2-6.99-.03-1.97,0-3.94.03-5.91.04-3.74.06-7.47.14-11.21.07-3.5.15-7,.29-10.5.06-1.54,1.18-2.51,3.1-2.58,3.66-.13,7.32-.1,10.98-.17,2.94-.06,5.88-.21,8.82-.26,2.85-.05,5.7-.01,8.54-.02,4.05-.02,8.1-.03,12.16-.07,2.11-.02,4.21-.12,6.33-.02,2.73.14,5.49-.21,8.23-.3.94-.03,1.88.15,2.82.13,4.68-.08,9.36-.16,14.04-.32,3.02-.1,6.04-.38,9.07-.5,3.48-.14,6.95-.2,10.43-.27,4.99-.09,9.99-.17,14.99-.22,5.11-.05,10.22-.12,15.33-.04,1.1.02,2.2.64,3.29.98ZM345.27,86.93c-.11,5.88-.23,11.4-.31,16.92-.02,1.4.17,2.81.16,4.22-.03,4.24-.13,8.48-.15,12.72-.02,4.01.06,8.02.02,12.03-.03,3.58-.18,7.15-.25,10.72-.05,2.84.12,5.68-.11,8.5-.29,3.68-.13,7.32.11,10.98.02.3.29.68.18.88-.91,1.73-.23,3.59-.47,5.37-.1.76.33,1.6.53,2.48,2.02-.16,3.75-.4,5.48-.42,4.62-.04,9.24.03,13.86.04,3.81,0,7.62,0,11.43-.07,3.35-.06,6.69-.25,10.04-.33,2.86-.07,5.72-.06,8.58-.07,2.12,0,4.25.07,6.37.04,3.11-.04,6.23-.16,9.34-.22,5-.1,10-.17,15-.29,2.33-.06,2.68-.4,3.09-2.69.08-.47.05-.96.05-1.43,0-2.74.01-5.48.01-8.22,0-5.44,0-10.88,0-16.32,0-7.82.04-15.65.04-23.47,0-9.65-.02-19.3-.03-28.96,0-2.11-.81-2.95-2.91-2.76-1.06.09-2.11.53-3.16.52-7.03-.03-14.07-.11-21.1-.22-3.41-.05-6.84-.01-10.22-.34-3.74-.36-7.47,1.28-11.19-.04-.28-.1-.63,0-.95,0-8.21,0-16.43,0-24.64,0-2.14,0-4.28-.04-6.42.03-.9.03-1.79.3-2.41.41Z"/>
        <path d="M937.3,40.37c3.26,2.4,2.44,5.57,2.82,8.31.36,2.6.17,5.29.19,7.93,0,1.72-.12,3.44-.07,5.15.06,2.13.24,4.26.39,6.39.03.39.27.79.21,1.16-.56,3.95-.26,7.92-.19,11.88,0,.41-.28.91-.57,1.23-.64.7-1.37,1.31-1.74,1.66-1.64.11-2.94.19-4.23.28-1.19.08-2.39.25-3.58.24-7.49-.03-14.98-.15-22.47-.12-4.12.02-8.23.34-12.35.43-5.64.12-11.29.07-16.93.23-4.04.12-8.07.51-12.11.7-1.18.05-2.37-.25-3.55-.27-2.3-.05-4.6-.01-7.13-.01-.06.97-.14,1.89-.16,2.82-.21,8.9-.4,17.8-.62,26.7-.17,6.9-.4,13.8-.57,20.7-.2,8.5-.34,17-.54,25.5-.04,1.57-.23,3.14-.39,4.7-.18,1.86.61,3.24,2.05,4.3.29.22.81.46,1.07.35,2.02-.89,4.07-.12,6.1-.21,3.16-.13,6.33-.34,9.49-.4,3.73-.07,7.46.03,11.19-.03,3.4-.05,6.8-.25,10.2-.33,4.45-.1,8.9-.18,13.35-.22,3.48-.04,6.97.04,10.46-.02,3.78-.06,7.56-.29,11.35-.32,2.59-.03,5.17.18,7.76.21,1.01.01,2.02-.18,3.24-.3,0-4.02-.04-8.04.02-12.07.02-1.5.38-3,.39-4.51.04-4.94.08-9.88-.06-14.81-.14-5.04.06-10.06.29-15.1.16-3.49-.1-7.01-.18-10.51-.06-2.52-.11-5.04-.23-7.56-.19-4.2-.45-8.39-.65-12.59-.07-1.33-.07-2.67-.08-4-.03-2.85,1.84-4.32,5.15-4.23,1.97.05,3.95-.14,5.92-.14,1.87,0,3.73.12,5.6.16.62.01,1.25-.07,1.87-.1,3.11-.14,6.2.14,9.32.02,4.71-.19,9.43.12,13.83.22,2.85,3.1,1.85,6.57,1.95,9.81.18,5.96.27,11.93.28,17.89,0,6.01-.17,12.02-.19,18.03,0,2.68.24,5.35.28,8.03.04,2.58-.05,5.17-.05,7.75,0,4.25.06,8.51.03,12.76-.04,4.99-.2,9.98-.21,14.97-.01,3.72.19,7.44.17,11.16-.01,4.54-.21,9.08-.22,13.62-.03,7.93.03,15.86.03,23.8,0,4.99-.11,9.98-.09,14.97.02,5.62.19,11.23.19,16.85,0,5.17-.16,10.33-.23,15.5-.02,1.67.07,3.35.01,5.02-.25,7.07.15,14.14-.03,21.2-.02.71,0,1.44-.12,2.13-.22,1.21-1.09,1.94-2.09,1.92-3-.06-6.01-.2-9.01-.15-5,.07-10,.25-15,.41-4.35.14-8.7.33-13.05.49-.79.03-1.58,0-2.31,0-.16,5.99-.33,12.11-.47,18.23-.04,1.84.21,3.7-.04,5.51-.5,3.56.12,7.1-.06,10.64-.07,1.39-.01,2.79.02,4.18.04,1.85-1.35,3.28-3.26,3.22-3.05-.09-6.13-.54-9.15-.27-4.05.36-8.05-.37-12.04-.12-5,.31-9.96-.5-14.95-.09-2.78.23-4.84-2.21-4.63-5.07.15-2.04.31-4.09.29-6.13-.05-3.94-.3-7.88-.35-11.82-.07-5.64-.03-11.28-.07-16.92,0-1.62.81-2.81,2.4-3,1.74-.21,3.5-.38,5.24-.3,6.36.28,12.71.29,19.07-.17,3.09-.22,6.2-.13,9.31-.2,1.03-.02,2.07-.08,3.1-.14.92-.05,1.83-.11,2.77-.17,1.72-2.24.98-4.97,1.06-7.58.04-1.27.15-2.53.16-3.8.03-3.42-.01-6.85.06-10.27.04-1.89.33-3.77.37-5.66.03-1.55-.17-3.11-.23-4.67-.11-2.79-.24-5.58-.26-8.36-.04-7.8-.07-15.6-.01-23.4.02-3.49.37-6.97.37-10.46,0-2.7-.21-5.4-.5-8.08-.18-1.69-1.06-2.47-2.7-2.45-4.29.04-8.57.26-12.85.3-2.13.02-4.27-.28-6.4-.3-5.59-.06-11.18-.01-16.76-.09-2.06-.03-4.11-.3-6.17-.44-.48-.03-.96-.02-1.43.01-6.4.46-12.8-.09-19.19.03-5.56.1-11.12.38-16.68.63-1.64.07-2.51,1.04-2.66,3.07-.17,2.14-.16,4.3-.19,6.44-.08,5.26-.16,10.52-.21,15.79-.04,5.01-.09,10.01-.04,15.02.04,3.9.04,7.81.42,11.68.26,2.64.19,5.28.35,7.91.18,2.97-.01,5.96-.04,8.94-.02,2.25-.56,4.5.13,6.74.11.37.22.82.12,1.18-.47,1.78-.55,3.56-.56,5.4,0,1.05-.8,2.22-1.52,3.11-.77.96-1.9.48-3.02.38-3.06-.28-6.17-.11-9.25-.2-1.98-.06-3.95-.27-5.92-.37-1.33-.07-2.67-.11-4.01-.09-5.47.09-10.93.21-16.4.3-.71.01-1.42-.11-2.31-.19-.2-.85-.57-1.68-.57-2.51,0-7.01.15-14.02.12-21.03-.03-6.28-.22-12.56-.34-18.84,0-.53-.04-1.08.05-1.6.63-3.79.79-7.59.58-11.43-.14-2.53.09-5.09.07-7.63-.04-4.42-.18-8.85-.22-13.27-.03-3.11.05-6.21.09-9.32.04-3.19.14-6.38.15-9.56.02-3.81.01-7.62-.06-11.43-.09-4.66-.33-9.31-.37-13.97-.03-3.32.22-6.63.26-9.95.02-1.59-.18-3.17-.22-4.76-.07-3.42-.14-6.85-.13-10.27.02-7.49.13-14.98-.29-22.47-.12-2.22-.06-4.44-.08-6.66-.05-6.04-.07-12.08-.15-18.12-.06-4.51-.21-9.02-.28-13.54-.06-3.41-.03-6.82-.09-10.23-.09-5.64-.21-11.27-.32-16.91-.08-3.89-.21-7.78-.23-11.66,0-2.71.05-5.42.26-8.12.15-1.99,1.16-3.03,3.17-3.21,2.83-.26,5.68-.36,8.52-.41,5.97-.13,11.93-.22,17.9-.25,3.41-.02,6.83.11,10.24.17.48,0,.96.03,1.43-.04,3.16-.43,6.33.16,9.46,0,3.09-.16,6.16,0,9.24-.02,2.46-.02,4.93.03,7.39-.02,3.56-.08,7.11-.24,10.67-.31.7-.02,1.4.27,2.11.27,3.6.01,7.21-.03,10.81-.04,3.14,0,6.28.05,9.41.03,4.66-.03,9.32-.12,13.98-.13,3.15,0,6.31.14,9.46.12,1.09,0,2.17-.28,2.9-.39Z"/>
        <path d="M1368.7,86.8c-.11.2-.48.59-.53,1.02-.24,1.7-.49,3.41-.53,5.13-.09,4.19-.18,8.37-.37,12.56-.3,6.5.04,13.03.08,19.54,0,.86-.11,1.73-.16,2.51,1.85,1.64,3.75,2.01,6.19,1.8,4.76-.41,9.57-.18,14.36-.26,4.98-.08,9.97-.22,14.95-.31,2.03-.04,4.05,0,5.9,0,.42,1.12.95,2.07,1.1,3.08.21,1.4.18,2.85.15,4.27-.09,4.83-.34,9.66-.31,14.49.03,5.54.29,11.08.44,16.62.02.78-.05,1.58-.13,2.36-.18,1.74.2,2.16,1.89,2.11,6.49-.2,12.98-.37,19.47-.6,5.47-.19,10.95-.44,16.42-.65,3.22-.12,5.11,1.9,4.99,5.14-.24,6.13-.4,12.26-.61,18.39-.02.63-.15,1.25-.19,1.88-.09,1.42-.17,2.83-.21,4.25-.06,1.82-.15,3.65-.11,5.47.06,2.22.31,4.43.33,6.65,0,.6-.34,1.39-.8,1.78-1.28,1.1-2.68,1.56-4.55,1.44-4.52-.29-9.07-.2-13.61-.18-5.88.02-11.76.27-17.63.12-1.91-.05-3.72-.24-5.55.45-.47.18-1.09-.1-1.65-.11-2.21-.06-4.41-.08-6.62-.13-1.97-.05-3.93-.12-5.9-.16-3.16-.07-6.32-.07-9.47-.18-4.23-.14-8.45-.37-12.68-.53-1.11-.04-2.23.09-3.34.03-3.3-.16-4.43,1.18-4.69,4.87-.13,1.89.06,3.8.1,5.7.16,6.72.29,13.44.47,20.15.08,2.92.3,5.84.39,8.76.07,2.17,1.92,3.83,4.15,3.72,1.26-.06,2.53.08,3.79.06,4.91-.05,9.82-.15,14.73-.18,6.84-.04,13.67-.03,20.51-.03.39,0,.78.08,1.21.12.92,4.69-.02,9.32.07,13.93.08,4.65-.2,9.31-.09,13.96.11,4.65.03,9.31-.04,14.25,14.13-.24,27.97-.48,41.92-.72.66-1.09.57-2.35.52-3.61-.15-3.66-.32-7.31-.45-10.97-.17-4.78-.35-9.56-.46-14.34-.07-3.35-.08-6.71-.03-10.07.03-1.98.15-2.12,2.08-2.58,1.15-.27,2.35-.45,3.52-.44,4.35.04,8.7.26,13.05.24,4.76-.02,9.52-.2,14.28-.35,2.69-.09,5.38-.27,8.07-.42,1.54-.08,2.9,1.24,2.92,2.85.05,3.55.16,7.09.14,10.64-.01,2.28-.24,4.56-.32,6.85-.04,1.33.03,2.66.03,3.99.02,3.54.04,7.08.05,10.62,0,2.96,0,5.92,0,9.14-3.06-.16-6.1-.39-9.15-.47-3.83-.1-7.66-.02-11.48-.1-6.28-.13-12.56-.33-18.84-.49-.71-.02-1.44-.02-2.14.11-1.13.21-1.79.91-1.81,2.12-.09,5.56-.22,11.11-.29,16.67-.05,4.59-.03,9.17-.04,13.76,0,2.69-.02,5.39-.07,8.08,0,.54-.19,1.07-.33,1.78-4.99,0-9.92-.01-14.84,0-2.84,0-5.68.05-8.51.11-1.96.04-3.93.18-5.89.18-4.41,0-8.82-.13-13.23-.1-2.88.02-5.76.31-8.64.36-4.76.08-9.53.07-14.29.09-5.93.03-11.87.02-17.8.08-1.04.01-1.54-.39-1.52-1.36.05-3.09.16-6.19.25-9.28.03-1.19.07-2.37.09-3.56.06-4.76.13-9.52.17-14.27.02-2.15-.01-4.29-.01-6.44,0-2.25-.48-4.37-1.55-6.36-.56-1.05-1.35-1.41-2.52-1.41-7.34.03-14.67-.07-22.01.02-4.99.06-9.98.38-14.97.57-.77.03-1.55,0-2.62,0,0-2.16,0-4.04,0-5.93,0-2.29-.05-4.59.03-6.88.19-5.14.23-10.28-.01-15.43-.1-2.19.22-4.41.34-6.61.02-.31-.06-.63-.06-.94-.05-2.22-.12-4.44-.13-6.67-.01-2.75,0-5.5.05-8.25.04-2.87.13-5.74.2-8.61.01-.48.06-.96.03-1.44-.25-4.08-.34-8.16-.02-12.25.21-2.68.03-5.4-.09-8.1-.15-3.12.99-4.65,4.12-4.88,3.33-.24,6.68-.25,10.01-.4,4.56-.2,9.11-.49,13.67-.66,4.12-.16,8.25-.23,12.68-.34v-42.04c-.82-.15-1.48-.39-2.15-.38-7.87.16-15.73.37-23.6.54-2.48.06-4.95.06-7.43.07-1.95,0-3.77-.24-5.6-1.19-1.36-.71-1.57-1.64-1.58-2.85-.05-3.65-.03-7.31-.1-10.96-.09-4.37-.3-8.74-.36-13.11-.03-2.19.19-4.38.24-6.57.02-.67-.23-1.35-.21-2.03.1-4.75.28-9.5.32-14.25.02-2.12-.34-4.24-.36-6.35-.06-7.84-.08-15.69-.05-23.53,0-1.33.29-2.66.57-3.97.39-1.86.98-2.39,2.89-2.44,2.61-.07,5.22,0,7.84.04,1,.01,2.01.09,3.01.11,4.44.09,8.88.15,13.32.26,3.73.09,7.45.24,11.18.38,1.3.05,2.33-.84,2.35-2.14.08-4.39.1-8.78.2-13.17.09-3.87.28-7.73.38-11.6.06-2.51.04-5.03.07-7.54.02-1.74.02-3.47.13-5.2.13-1.84.49-2.19,2.36-2.22,4.79-.07,9.58-.06,14.36-.13,5.01-.08,10.01-.27,15.01-.3,5.07-.04,10.15.09,15.22.08,7.88-.02,15.75-.11,23.63-.15,4.31-.02,8.62-.02,12.93,0,.87,0,1.74.1,2.9.17.08,2.1.19,4.11.23,6.13.1,5.79-.19,11.62.34,17.37.52,5.51.08,10.99.3,16.48.1,2.4.19,2.53,2.74,2.43,5.45-.2,10.91-.3,16.37,0,2.86.16,5.74-.15,8.6-.16,4.14-.01,8.29.03,12.43.1,1.48.03,2.42.79,2.56,2.29.25,2.51.42,5.05.38,7.57-.05,3.31-.38,6.61-.52,9.92-.2,4.43-.35,8.87-.49,13.31-.06,1.88.23,3.81-.07,5.64-.26,1.61.33,3.44-1.02,4.83-.62.64-1.25,1.01-2.27,1.01-7.45-.03-14.9,0-22.34.11-4.26.06-8.51.3-12.77.49-3.24.15-4.19-.86-4.12-4.08.08-4.06-.02-8.13-.02-12.19,0-5.03.04-10.06.03-15.09,0-4.2.01-8.41-1.02-12.67-.62-.09-1.23-.25-1.84-.24-8.93.05-17.86.08-26.78.19-3.35.04-6.69.31-10.03.39-1.4.04-2.81-.19-4.21-.17-3.72.03-7.44.14-11.16.18-6.48.06-12.96.09-19.44.12-1.34,0-2.68.02-4.01-.03-1.73-.06-3.46-.18-5.41-.29Z"/>
        <path d="M597.3,214.62c-3.99.03-7.55.07-11.1.09-3.17.02-6.33.02-9.5,0-5.2-.03-10.39-.02-15.59-.15-2.51-.06-4.88-.71-6.62-3.26-.03-2.59-.25-5.59-.04-8.56.21-2.95.06-5.9.37-8.86.31-2.97-.11-6-.09-9.01.01-3.08-.1-6.17,0-9.22.1-2.9-.29-5.83.12-8.68.43-3.01-.11-5.95.01-8.93.13-2.97.23-5.95.3-8.93.07-2.93.11-5.86.14-8.78.03-2.98.05-5.96.06-8.95.01-3.02-.02-6.04.02-9.06.05-3.07.22-6.13.24-9.2.02-3.01-.14-6.02-.12-9.02.02-2.9.22-5.8.27-8.7.05-3.02.01-6.03.01-9.33h-42.22c-.08-.87-.2-1.48-.19-2.1.01-3.55.02-7.11.08-10.66.08-4.98.23-9.96.31-14.94.06-3.69,0-7.39.15-11.08.07-1.77,1.47-2.8,2.94-3.42,1.3-.54,2.74-.91,4.15-1.01,2.51-.18,5.03-.19,7.55-.12,2.84.08,5.67.37,8.49-.32.8-.2,1.72.21,2.59.22,2.73.03,5.45.24,8.18-.17,1.22-.18,2.53-.21,3.73.04.96.2,2.04.73,2.65,1.47.54.65.84,1.84.69,2.68-.57,3.07-.06,6.12.02,9.16.1,3.81.4,7.62.45,11.43.07,5.35,0,10.7,0,16.06,0,.63.12,1.25.21,2.14h42.29c0,5.2,0,10.12,0,15.05,0,5.15-.22,10.31,0,15.46.19,4.28.25,8.54.02,12.82-.15,2.97.16,5.95.22,8.93.06,2.75.08,5.49.07,8.24-.01,4.46-.08,8.92-.1,13.37-.01,3.06-.07,6.13.07,9.19.1,2.12,2.01,3.57,4.13,3.36,1.4-.14,2.79-.48,4.18-.51,9.05-.22,18.08-1.23,27.16-.79,2.46.12,4.94-.09,7.41-.14.3,0,.61.12,1.14.23,0,2.55.01,5.07,0,7.59-.04,8.38-.1,16.76-.13,25.14-.03,7.81.01,15.62-.06,23.43-.03,3.34-.31,6.68-.36,10.03-.03,2.32.19,4.64.21,6.96.01,1.49-.22,2.98-.19,4.47.04,1.97.29,3.93.35,5.9.12,4.05.21,8.1.26,12.15.04,3.25-.02,6.5-.03,9.75,0,5.89,0,11.79-.01,17.68,0,1.27,0,2.53,0,4.09,1.03.11,1.93.27,2.83.28,6.21.04,12.43.05,18.64.07,3.99.01,7.98-.04,11.97.07,1.98.05,3.97.32,5.93.63,1.98.31,2.23,2.15,2.43,3.57.31,2.18.15,4.42.16,6.64.01,2.86,0,5.72,0,8.58,0,3.67.04,7.35-.01,11.02-.06,3.75-.07,7.48.78,11.16.55,2.37-1.34,4.35-3.79,4.21-6.31-.36-12.63-.56-18.94-.98-2.42-.16-4.84-.22-7.27-.52-4.01-.5-8.12-.25-12.19-.22-1.72.01-3.44-.12-5.17.61-1.08.46-2.51.09-3.78.08-2.06-.02-4.13.04-6.19-.08-3.35-.19-6.69.02-10.03-.05-4.72-.1-9.44-.28-14.17-.41-.37-.01-.75.14-1.12.16-1.08.06-2.17.17-3.26.12-.81-.03-1.3-.54-1.29-1.42.05-2.31.06-4.62.15-6.92.06-1.5.32-3,.36-4.51.09-3.49-.13-7.01.21-10.47.54-5.47.15-10.93-.2-16.34-.41-6.36-.59-12.72-.79-19.08-.17-5.13.2-10.28.22-15.43.06-13.31.06-26.62.08-39.93,0-3.41.06-6.81,0-10.22-.02-1.16-.29-2.31-.49-3.84Z"/>
        <path d="M676.36,85.5c-4.16,0-8.33-.11-12.49.03-5.47.17-10.93.54-16.4.81-.95.05-1.91.11-2.87.08-2.7-.08-4.6-2.11-4.55-4.81.12-6.03.3-12.06.34-18.09.02-3.64-.2-7.28-.27-10.92-.05-2.7-.05-5.41-.02-8.11.01-1.15.87-2.07,2.09-2.15,2.22-.14,4.44-.2,6.66-.25,3.15-.07,6.31-.16,9.46-.14,2.94.02,5.87.19,8.81.25,1.11.03,2.22-.02,3.33-.08,5.78-.3,11.54.5,17.34-.03,3.94-.36,7.96.17,11.95.19,4.12.02,8.24-.13,12.37-.14,3.56,0,7.13.08,10.69.12,1.45.02,2.48.86,2.98,2.05.49,1.18.85,2.35.59,3.86-.43,2.47-.14,5.07-.13,7.62.01,2.85.03,5.7.07,8.56.05,3.16.14,6.32.18,9.48.06,3.98.09,7.97.13,11.95.04,3.08.12,6.16.11,9.23,0,1.99-.18,3.97-.2,5.96-.04,3.74-.03,7.48-.02,11.22.01,6.04-.25,12.09.15,18.1.31,4.65.05,9.29.37,13.93.15,2.12-.53,4.35-.15,6.4.53,2.82-.68,5.59.29,8.41.4,1.16-.27,2.64-.26,3.98.01,2.19.25,4.37.27,6.56.04,3.16.02,6.32-.04,9.47-.03,1.57-.43,3.16-.28,4.7.38,3.86-.69,7.68-.13,11.55.25,1.7-.13,3.49-.05,5.23.17,3.57.59,7.12.65,10.69.07,4.29-.18,8.59-.18,12.88,0,3.11.31,6.21.25,9.32-.08,4.37-.42,8.73-.56,13.1-.05,1.57.2,3.15.27,4.73.15,3.87.37,7.74.38,11.61.01,7.53-.13,15.07-.17,22.6-.02,3.25.09,6.5.1,9.75,0,.78-.06,1.58-.23,2.35-.42,1.99-1.51,2.8-3.57,2.76-9.7-.15-19.41-.28-29.11-.47-2.79-.06-5.59-.24-8.37-.51-1.9-.18-3.1-1.98-2.35-3.75.5-1.18.4-2.24.4-3.41-.01-3.25.2-6.49.16-9.74-.03-3.18-.25-6.36-.38-9.54-.12-2.9-.37-5.8-.31-8.69.08-4.57.38-9.13.57-13.7.1-2.36.55-4.79.17-7.08-.38-2.31-.23-4.57-.26-6.85-.08-6.45-.03-12.9-.11-19.34-.01-1.01-.47-2.01-.6-3.03-.11-.84-.35-1.87,0-2.54.69-1.33.45-2.58.35-3.91-.14-1.74-.18-3.5-.16-5.25.02-3.28.14-6.56.17-9.85.01-1.34-.28-2.71-.1-4.02.42-3.08.34-6.12.02-9.19-.15-1.47.25-2.98.26-4.47.04-4.61.03-9.22,0-13.83-.03-2.91-.19-5.82-.21-8.72-.01-1.16.28-2.32.26-3.48-.07-4.58.23-9.16-.39-13.73-.14-1.05.44-2.19.44-3.29.03-7.07-.02-14.14-.03-21.2,0-2.04.14-4.09.08-6.13-.08-2.97-.67-5.99-.31-8.89.28-2.25-.34-4.51.42-6.72.47-1.35-1.17-3.5-2.64-3.57-1.74-.09-3.49-.02-5.24-.02,0,.03,0,.06,0,.09Z"/>
        <path d="M301.55,309.9c0,5.24.04,10.49-.01,15.73-.04,3.64-.24,7.28-.31,10.92-.01.66.26,1.33.45,1.98.23.79-.69,2.86-1.73,3.2-1.63.53-3.34,1.04-5.03,1.12-3.96.18-7.94.11-11.91.1-6.54-.02-13.07-.06-19.61-.1-1.09,0-2.18,0-3.26-.1-1.88-.19-3.89-2.53-3.88-4.43.02-5.1.05-10.21.08-15.31.02-3.31.31-6.64,0-9.92-.32-3.4.24-6.75.12-10.12,0-.24.09-.52,0-.71-.87-1.77.18-2.72,1.36-3.84.88-.84,1.82-.72,2.66-.59,5,.8,10.02.35,15.03.34,2.87,0,5.73-.27,8.59-.32,2.36-.04,4.73.1,7.1.14,2.05.03,4.11-.07,6.15.07,2.51.17,3.77,1.39,4.16,3.96.18,1.18.11,2.39.12,3.59.02,1.43,0,2.87,0,4.3-.02,0-.05,0-.07,0Z"/>
        <path d="M398.77,343.43c-3.82,0-7.65,0-11.47,0-1.59,0-1.85-.25-1.8-1.75.19-5.63-.17-11.24-.53-16.87-.22-3.43.16-6.9.12-10.34-.04-3.47-.2-6.94-.43-10.4-.24-3.63,1.47-5.18,5.14-4.98,2.75.15,5.53-.26,8.3-.31,4.37-.07,8.73,0,13.1-.07,1.63-.03,3.25-.33,4.88-.42,2.62-.16,5.24-.28,7.86-.35,2.5-.07,3.32.56,3.65,3.05.33,2.51.48,5.04.64,7.56.18,2.76.31,5.53.4,8.3.02.77-.26,1.56-.27,2.34-.01,2.13.05,4.26.08,6.4.08,5.06.17,10.12.23,15.18.03,2.04-.57,2.42-2.57,2.44-4.36.04-8.72.29-13.08.36-3.4.06-6.8-.03-10.2-.05-1.36,0-2.72,0-4.07,0v-.09Z"/>
        <path d="M812.32,304.16c0,6.83,0,13.65,0,20.48,0,2.43-.08,4.87-.01,7.3.05,1.82.3,3.64.43,5.47.1,1.43-.53,2.44-1.83,3.04-.15.07-.32.24-.42.2-1.75-.71-3.35.39-5.05.38-3.82-.01-7.64-.02-11.47,0-4.2.02-8.4.01-12.6.13-3.3.1-6.6.39-9.9.55-1.27.06-2.69-1.35-2.69-2.62,0-6.18.05-12.37.04-18.55,0-5.14-.13-10.28-.05-15.41.03-1.69.5-3.39.87-5.06.27-1.21,1.05-1.84,2.4-1.88,4.29-.1,8.58-.35,12.88-.44,5.22-.1,10.45-.14,15.67-.12,1.9,0,3.8.26,5.7.36.63.03,1.28,0,1.9-.12,3.42-.62,3.94.88,4.54,3.67.18.84.03,1.75.03,2.63-.14,0-.28,0-.43,0Z"/>
        <path d="M300.33,1.38c.85,3.9,1.3,7.59.99,11.46-.35,4.41-.11,8.86-.19,13.29-.08,4.37-.14,8.74-.42,13.09-.07,1.06-.98,2.08-1.56,3.09-.29.51-.7.95-1.1,1.49-1.35-.1-2.87-.51-4.27-.25-4.52.85-9.07.34-13.6.57-3,.15-5.99.54-8.99.66-3.31.14-6.63.2-9.94.09-1.62-.05-2.73-1.24-2.97-2.92-.35-2.41-.78-4.8-.53-7.28.21-2.11.02-4.26.03-6.39,0-2.05.07-4.09.05-6.14-.01-1.89-.15-3.78-.11-5.67.05-2.45.31-4.89.32-7.34,0-1.48-.17-2.99-.47-4.45-.56-2.68,1.13-4.52,3.87-4.37,3.18.17,6.37.08,9.56.09,6.05.02,12.1.02,18.15.05,2.74.02,5.48.05,8.22.19.92.05,1.82.44,2.97.73Z"/>
        <path d="M1025.47,334.26c0-6.96,0-13.93,0-20.89,0-3.58-.04-7.16.04-10.74.02-.91.28-1.92.75-2.68.3-.48,1.19-.84,1.82-.84,6.53,0,13.07.24,19.6.12,4.12-.08,8.23-.76,12.36-.97,2.15-.11,4.32.17,6.47.37.35.03.82.56.95.95.42,1.27.91,2.57.99,3.88.13,2.1-.06,4.22-.09,6.33-.09,7.03-.35,14.06-.15,21.07.08,3.03-.56,6.14.76,9.16.72,1.66-.42,2.84-2.4,2.86-1.98.01-3.95-.14-5.93-.17-2.59-.04-5.17-.07-7.76-.05-7.02.06-14.03.2-21.05.22-1.5,0-3-.33-4.49-.59-.91-.16-1.98-1.53-2.06-2.56-.07-.95-.1-1.9-.12-2.86-.02-.87,0-1.74,0-2.61.11,0,.21,0,.32,0Z"/>
        </g>
      </g>
    </g>
  </symbol>
</svg>








